<?xml version="1.0" encoding="UTF-8"?>
<!DOCTYPE svg PUBLIC "-//W3C//DTD SVG 1.1//EN" "http://www.w3.org/Graphics/SVG/1.1/DTD/svg11.dtd">
<!-- Creator: CorelDRAW 2020 (64-Bit) -->
<svg xmlns="http://www.w3.org/2000/svg" xml:space="preserve" width="297mm" height="100mm" version="1.1" style="shape-rendering:geometricPrecision; text-rendering:geometricPrecision; image-rendering:optimizeQuality; fill-rule:evenodd; clip-rule:evenodd"
viewBox="0 0 29700 10000"
 xmlns:xlink="http://www.w3.org/1999/xlink"
 xmlns:xodm="http://www.corel.com/coreldraw/odm/2003">
 <defs>
  <style type="text/css">
   <![CDATA[
    .fil0 {fill:#f7ffdd}
   ]]>
  </style>
 </defs>
 <g id="Слой_x0020_1">
  <metadata id="CorelCorpID_0Corel-Layer"/>
  <g id="_2448035002768">
   <path class="fil0" d="M2229.74 2778.82l0 49.42c13.91,5.03 19.49,10.29 24.71,24.71l74.12 0c8.24,20.41 17.19,10.85 65.27,27.39 13.14,4.52 2.07,0.24 13.22,5.31 0.96,0.44 14.37,7.4 16.33,8.38l65.3 39.7c26.68,18.66 53.02,48.16 74.81,73.45l76.23 121.44c0.61,1.27 1.47,2.81 2.06,4.12l3.71 8.64c0.55,1.44 1.09,3.09 1.6,4.58 0.52,1.51 0.94,3.19 1.44,4.73l9.07 27.99c0.51,1.49 1.11,3.08 1.61,4.57 0.5,1.52 1.01,3.15 1.51,4.67l27.8 95.74c0.4,1.69 0.81,3.28 1.26,4.92l15.61 70.87c3.08,8.91 1.56,-10.69 5.86,18.85 0.74,5.06 0.67,18.48 0.62,24.08l3.97 63.99c5.65,16.76 0.57,-11.15 6.83,17.87 0.06,0.31 8.92,2778.33 0.94,2833.77l-9.12 27.95c-0.46,1.63 -0.87,3.23 -1.26,4.92 -0.42,1.77 -0.58,3.42 -0.94,5.23l-5.21 25.69c-0.03,0.11 -3.39,8.8 -3.43,8.91l-36.99 123.62c-11.58,34.38 -23.6,51.26 -41.54,82l-138.97 145.18c-30.96,24.66 -17.99,19.19 -54.85,37.81l-94.69 47.38c-0.32,0.15 -15.76,8.46 -16.09,8.62 -11.21,5.24 0.07,0.76 -13.17,5.36 -7.71,2.67 -11.29,3.08 -19.08,5.63l-50.48 17.47c-13.47,4.07 -5.88,1.59 -20.41,4.3l-38.29 11.12c-20.8,4.27 -43.91,-1.87 -64.13,3.82 -1.54,0.43 -3.01,1.21 -4.48,1.7 -75.1,25.19 -103.67,4.65 -141.48,-3.01 -15.68,-3.18 -31.03,0.5 -46.9,-2.51 -17.35,-3.3 -9.11,-2.92 -13.93,-4.6l-86.31 -31.06c-1.26,-0.62 -2.8,-1.49 -4.06,-2.12 -1.25,-0.63 -2.83,-1.45 -4.1,-2.07l-8.32 -4.04c-29.5,-14.63 -80.77,-63.81 -100.32,-91.17l-23.05 -44.9c-23.31,-46.04 -20.07,-61.16 -20.7,-121.62 -0.73,-70.16 20,-95.58 33.12,-133.66 4.29,-12.44 3.66,-2.69 4.07,-20.64l24.71 0c3.89,10.75 2.48,6.19 6.56,11.97 0.78,1.1 5.58,7.42 8.34,10.18l67.29 43.91c1.27,0.63 2.91,1.36 4.19,1.98l44.98 22.97c52.11,23.88 148.98,25.03 202.43,20.41l164.71 -63.85c9.39,-5.43 2.21,-0.28 11.13,-7.39l46.31 -46.35c32.72,-32.54 59.05,-70.29 78.48,-113.01l25.1 -73.73c0.52,-1.44 1.28,-2.96 1.79,-4.4 1.47,-4.23 1.35,2.37 4.64,-13.88 9.02,-44.48 4.94,-117.9 -9.71,-160.91l-32.24 -85.13c-14.97,-30.09 -35.17,-60.26 -58.78,-83.29 -51.62,-50.37 -60.7,-71.32 -128.29,-94.08 -1.48,-0.5 -3.06,-1.14 -4.53,-1.65l-55.57 -18.55c-52.34,-17.38 -80.9,-5.49 -117.4,-18.51 -1.41,-0.5 -2.85,-1.4 -4.29,-1.88 -34.09,-11.48 -77.41,-4.24 -113.07,-4.3 -22.91,-0.04 -50.24,-3.45 -71.54,2.59l-27.71 9.35c-11.54,1.53 -24.67,-0.67 -36.23,0.84l-19.07 5.64c-1.46,0.49 -2.92,1.3 -4.4,1.77l-255.02 97.08c-21.28,10.32 -34.48,26.88 -53.62,39.04l-234.54 259.62c-0.63,1.26 -1.43,2.86 -2.06,4.12l-41.28 82.26c-0.64,1.25 -1.5,2.8 -2.13,4.05 -0.63,1.25 -1.51,2.79 -2.13,4.05l-21.69 64.78c-1.29,6.62 -0.7,8.79 -2.39,16.14 -0.39,1.71 -0.81,3.29 -1.25,4.94 -0.43,1.58 -1.07,3.09 -1.54,4.63 -0.46,1.51 -1.24,2.97 -1.72,4.46l-18.3 99.07c-0.15,42.63 -11.56,6.23 -12.81,135.89 -0.29,30.32 7.28,43.5 11.35,62.78 5.89,28.01 1.68,50 10.64,82.02l16.93 75.73c0.38,1.72 0.75,3.3 1.19,4.97l50.85 128.3c0.52,1.44 1.14,3.06 1.71,4.46l95.89 145.02c31.25,39.27 11.25,23.45 58.75,70.96 34.72,34.73 65.6,70.75 106.89,96.97l56.5 42.33c3.48,2.56 9.83,8.04 10.21,8.31l15.62 9.1c1.27,0.64 2.92,1.33 4.21,1.96 1.29,0.63 2.94,1.32 4.24,1.94l164.9 76.01c14.89,4.49 16.32,2.51 31.08,5.98l27.62 9.44c25.38,5.21 42.57,-3.21 68.6,5.52 13.03,4.37 -7.06,5.16 28.77,8.29 44.31,3.87 211.96,5.07 251.62,-8.29 23.94,-8.06 50.78,-2.8 76.45,-3.85 53.15,-2.18 7.33,-10.75 61.23,-12.89l48.09 -7.51c4.57,-1.64 6.62,-2.34 13.8,-4.72l51.04 -16.92c1.48,-0.5 3.06,-1.13 4.53,-1.65l27.97 -9.09c1.5,-0.5 3.08,-1.1 4.57,-1.61l37.3 -12.11c1.42,-0.54 3.03,-1.2 4.41,-1.78l86.37 -43.34c1.27,-0.63 2.86,-1.43 4.13,-2.05l152.17 -101.09c7.8,-4.9 13.38,-10.47 19.94,-17.12l66.82 -56.72c1.09,-0.74 2.71,-1.64 3.72,-2.46 15.46,-12.52 7.78,-11.19 16.99,-26.25l54.36 -56.83c3.01,-2.94 9.29,-8.82 9.5,-9.03l51.05 -66.32c0.72,-1.14 1.51,-2.8 2.21,-3.96l24.61 -37.17c4.18,-6.84 1.74,-4.29 6.64,-11.89l154.52 -314.94c3.38,-15.3 1.34,-16.01 5.92,-31.14 0.46,-1.52 1.15,-3.04 1.65,-4.53l3.39 -8.95c1.97,-5.72 2.53,-8.38 4.46,-14.07l6.62 -18.1c0.47,-1.56 1.04,-3.1 1.47,-4.71l27.7 -126.72c0.87,-11.27 -1.21,-26.14 -0.34,-37.41 2.8,-36.37 3.78,-15.62 8.23,-28.83 13.15,-39.07 4.29,-1716.81 4.29,-1836.48l145.57 391.84c2.98,8.57 4.67,16.1 7.22,23.66l10.74 32.5c0.5,1.5 1.1,3.09 1.61,4.58 0.64,1.88 2.65,7.16 3.3,9.05l19.8 60.5c0.49,1.5 1.1,3.09 1.6,4.57l103.75 297.77c0.5,1.52 1.01,3.15 1.5,4.67l4.33 14.2c0.5,1.5 1.11,3.09 1.61,4.57l52.95 144.72c0.56,1.44 1.09,3.09 1.61,4.56l49.19 148.49c0.5,1.51 1.01,3.15 1.5,4.67l4.33 14.2c0.5,1.5 1.1,3.08 1.61,4.57l4.91 13.62c1.93,5.8 2.45,8.42 4.33,14.2l3.11 9.24c0.51,1.48 1.14,3.06 1.65,4.53l14.23 41.37c0.15,0.33 5,9 6.5,12.03 0.63,1.25 1.52,2.78 2.11,4.06l12.59 36.84c0.49,1.48 1.14,3.05 1.64,4.53l60.12 180.79c1.78,5.24 1.52,3.81 3.29,9.06 2.55,7.56 4.24,15.1 7.22,23.67l37.29 98.6c0.51,1.49 1.11,3.08 1.62,4.56l65.05 194.38c2.55,7.56 4.25,15.1 7.23,23.67l19.34 42.43c2.98,8.57 4.67,16.11 7.22,23.66 1.77,5.26 1.5,3.82 3.29,9.07l7.44 23.44c0.51,1.49 1.11,3.08 1.62,4.56 0.64,1.9 2.65,7.17 3.3,9.06l46.11 139.2c1.78,5.24 1.52,3.81 3.29,9.06l123.78 345.68c0.55,1.44 1.1,3.09 1.61,4.56 0.53,1.51 0.95,3.2 1.45,4.74l21.42 65.05c0.51,1.49 1.11,3.08 1.61,4.58l56.86 171.69c0.51,1.47 1.14,3.05 1.65,4.52l20.73 53.4c0.63,1.25 1.52,2.78 2.11,4.06l3.75 8.61c0.55,1.44 1.1,3.09 1.61,4.56 0.52,1.51 0.95,3.2 1.44,4.74l5.78 18.93c0.5,1.48 1.14,3.06 1.65,4.53l26.29 78.72c1.55,4.72 2.7,9.46 4.26,14.28l2.9 9.45c5.95,14.17 -1.12,0.36 6.7,11.82 16.45,24.07 4.96,-7.31 15.44,21.63l86.48 0 138.83 -336.8c0.5,-1.5 1.1,-3.09 1.6,-4.58l35.47 -94.25c0.49,-1.51 1.09,-3.09 1.59,-4.59l15.87 -45.9c0.59,-1.29 1.48,-2.81 2.11,-4.07l29.82 -81.36c0.5,-1.5 1.11,-3.09 1.61,-4.57 0.5,-1.48 1.14,-3.05 1.65,-4.53l10.48 -32.76c0.53,-1.41 1.2,-3.03 1.78,-4.4l61.77 -160.6c0.57,-1.34 1.36,-2.91 1.97,-4.22l26.1 -66.55c1.92,-5.77 2.45,-8.44 4.32,-14.2l47.91 -131.23c2.7,-8.62 0.82,-4.84 4.39,-14.14l28.24 -70.6c0.5,-1.5 1.1,-3.08 1.59,-4.58l117.07 -315.33c0.49,-1.51 1.1,-3.09 1.6,-4.59l10.5 -32.73c0.52,-1.48 1.05,-3.13 1.61,-4.57 0.54,-1.41 1.2,-3.03 1.79,-4.39l39.03 -90.68c3.89,-10.1 3.7,-12.76 7.24,-23.65 0.5,-1.5 1.09,-3.08 1.6,-4.58l12.34 -37.07c0.51,-1.48 1.14,-3.06 1.65,-4.53l14.22 -41.37c0.6,-1.29 1.49,-2.81 2.11,-4.07l31.21 -86.16c0.54,-1.41 1.2,-3.02 1.78,-4.39 0.57,-1.34 1.36,-2.92 1.97,-4.21 0.59,-1.29 1.48,-2.82 2.11,-4.07 1.5,-3.03 6.36,-11.7 6.51,-12.02l136.12 -370.41c0.64,-1.89 2.65,-7.17 3.28,-9.06 1.7,-5.06 2.3,-7.25 4.44,-14.1l8.14 -22.74c0.16,-0.34 5,-8.99 6.51,-12.02 0.63,-1.26 1.51,-2.79 2.11,-4.07l79.49 -210.84c0.52,-1.51 0.94,-3.2 1.44,-4.74l9.06 -28c3.15,-9.38 5.21,-18.82 8.83,-28.23 0.71,-1.84 2.94,-6.88 3.75,-8.6l84.7 -217.97c0.59,-1.37 1.26,-2.99 1.8,-4.39 0.55,-1.44 1.09,-3.09 1.6,-4.57l15.04 -46.73c2.09,-6.5 2.95,-9.38 4.53,-14.01l41.95 -112.48c0.5,-1.52 1,-3.16 1.48,-4.69l55.41 -142.26c1.78,-5.25 1.51,-3.81 3.3,-9.06 2.53,-7.46 6.51,-20.55 9.05,-28.01l13.91 -41.68c0.57,-1.34 1.35,-2.92 1.96,-4.22l35.19 -94.52c0.51,-1.48 1.15,-3.06 1.65,-4.54l12.59 -36.82c0.02,-0.05 5.27,-9.33 6.62,-11.91l22.39 -45.56 0 2724.1c0,18.45 0.7,37.8 0.45,56.05l-29.4 118.85c-0.53,1.43 -1.15,3.06 -1.73,4.45l-26.62 41.32c-5.77,9.01 -3.07,6.98 -8.76,15.95 -4.37,6.89 -9.19,12.03 -13.99,16.9 -1.41,1.43 -10.67,10.24 -12.59,12.12l-46.38 46.28c-11.09,11.08 -18.13,18.14 -27.67,27.92 -7.35,7.54 -4.82,6.04 -12.26,12.45l-18.67 12.21c-1.19,0.69 -2.85,1.45 -4.03,2.15 -1.16,0.7 -2.77,1.55 -3.91,2.27l-51.05 35.43c-1.04,0.77 -2.41,1.95 -3.48,2.7l-127.4 64.07c-22.71,8.22 -24.61,-2.83 -32.56,16.87l-4.52 66.29c2.87,8.91 4.11,1.72 4.52,20.19l2137.28 0c7.28,-18.04 21.96,-24.1 49.42,-24.71 0.84,-37.41 -4,-18.1 12.35,-24.71l0 -24.71c-16.35,-6.6 -11.51,12.71 -12.35,-24.7 -36.91,-0.82 -16.35,-4 -29.17,-7.9 -45.48,-13.83 -90.6,-18.06 -131.55,-35.22 -1.35,-0.57 -2.93,-1.34 -4.25,-1.94l-74.04 -37.14c-36.96,-18.33 -69.92,-47.8 -102.89,-70.06 -19.78,-13.36 -18.31,-29.33 -34.67,-45.65l-35.43 -44.88c-0.62,-1.27 -1.36,-2.9 -1.99,-4.18 -0.62,-1.27 -1.4,-2.87 -2.04,-4.14 -0.63,-1.26 -1.44,-2.83 -2.08,-4.09 -0.62,-1.26 -1.49,-2.81 -2.11,-4.07 -0.63,-1.25 -1.51,-2.78 -2.12,-4.05 -0.62,-1.28 -1.48,-2.82 -2.07,-4.11l-3.7 -8.65c-0.55,-1.44 -1.09,-3.09 -1.61,-4.57 -0.52,-1.51 -0.95,-3.2 -1.45,-4.73 -2.88,-8.79 -3.5,-11.72 -5.99,-18.72 -6.15,-17.32 0.23,6.71 -5.13,-13.4 -1.91,-7.19 -11.44,-3806.64 0,-3849.59 5.33,-19.98 -1.22,4.25 5.14,-13.39l83.16 -176.28c3.11,-4.9 38.35,-46.9 61.78,-61.77l126.91 -58.4c25.16,-8.64 50.26,-11.36 74.76,-24.07 20.03,-10.39 -8.82,0.84 16.42,-8.29l0 -49.42c-13.92,-5.04 -19.5,-10.29 -24.72,-24.71l-1606.04 0c-0.89,39.71 -12.38,17.88 -29.3,69.54l-47.77 131.37c-0.49,1.5 -1.09,3.08 -1.6,4.58l-68.13 191.3c-3.36,10.66 -1.78,8.63 -5.75,18.96l-37.29 98.6c-1.79,5.24 -1.53,3.81 -3.29,9.06l-70.85 188.6c-1.77,5.25 -1.5,3.82 -3.29,9.06l-7.45 23.44c-0.49,1.5 -1.09,3.09 -1.6,4.57l-55.83 154.19c-2.56,7.86 -3.9,12.75 -5.94,18.77l-35.48 94.24c-0.49,1.5 -1.09,3.09 -1.6,4.59 -0.63,1.9 -2.64,7.17 -3.28,9.07l-74.35 209.79c-0.6,1.29 -1.49,2.81 -2.11,4.07l-61.29 161.09c-0.52,1.51 -0.94,3.2 -1.44,4.74l-12.14 37.27c-0.49,1.56 -0.87,3.25 -1.36,4.82l-43.34 117.26c-0.5,1.48 -1.14,3.06 -1.65,4.53l-31.43 85.93c-0.62,1.26 -1.51,2.79 -2.11,4.07l-3.75 8.61c-0.56,1.43 -1.1,3.08 -1.61,4.56l-16.45 51.5c-0.49,1.52 -1.01,3.16 -1.51,4.67l-9.34 27.72c-0.49,1.57 -0.83,3.28 -1.33,4.84l-65.07 169.66c-0.5,1.49 -1.14,3.07 -1.64,4.54l-14.01 41.6c-0.5,1.48 -1.11,3.07 -1.6,4.56l-29.83 81.36c-0.62,1.26 -1.51,2.79 -2.11,4.07 -0.61,1.3 -1.39,2.88 -1.96,4.21 -0.59,1.37 -1.25,2.99 -1.79,4.39l-35.08 107c-0.58,1.33 -1.36,2.9 -1.97,4.21l-27.56 71.27c-0.49,1.57 -0.87,3.25 -1.36,4.82l-2.78 9.57c-0.51,1.48 -1.06,3.13 -1.6,4.58 -0.54,1.41 -1.2,3.02 -1.77,4.4l-31.01 36.95 -30.79 -111.28c-0.58,-1.34 -1.36,-2.92 -1.97,-4.22l-12.59 -24.46c-0.52,-1.51 -1.04,-3.12 -1.47,-4.71 -4.21,-15.32 -2.14,-20.57 -6.89,-36.35l-5.04 -13.49c-0.52,-1.49 -1.06,-3.12 -1.56,-4.62l-10.9 -32.35c-0.5,-1.51 -1.01,-3.14 -1.51,-4.66 -2.55,-7.86 -3.88,-12.76 -5.93,-18.78 -1.78,-5.24 -1.52,-3.8 -3.29,-9.06l-70.6 -213.54c-0.55,-1.41 -1.21,-3.03 -1.79,-4.39 -0.58,-1.34 -1.36,-2.92 -1.98,-4.21l-16.03 -39.56c-8.06,-43.57 -25.24,-85.06 -39.09,-127.69l-50.93 -152.92c-0.49,-1.49 -1.1,-3.08 -1.6,-4.56 -3.91,-11.43 0.6,2.36 -3.3,-9.06l-139.02 -416.93c-2.58,-7.94 -3.83,-12.63 -5.93,-18.77l-114.49 -342.62c-2.1,-6.14 -3.36,-10.82 -5.94,-18.77l-193.34 -578.8c-0.5,-1.51 -1.01,-3.15 -1.51,-4.67 -2.55,-7.86 -3.89,-12.76 -5.93,-18.77 -1.78,-5.21 -1.54,-3.84 -3.3,-9.06 -0.5,-1.5 -1.1,-3.08 -1.59,-4.58l-19.36 -48.59c-9.29,-18.1 5.06,10.04 -4.17,-8.19 -2.38,-4.72 -5.87,-11.73 -8.24,-16.47 -8.89,-17.76 0.65,8.08 -8.24,-16.47l-1501.04 0c-38.18,0 -91.29,-8.18 -125.94,3.78l-20.48 10.4c-14.69,9.15 -16.43,16.99 -32.71,22.88z"/>
   <path class="fil0" d="M16573 4063.66l30.88 123.55c0.51,1.47 1.15,3.05 1.65,4.52 0.51,1.49 1.11,3.08 1.62,4.57 2.35,7.07 3.48,11.8 5.83,18.87 0.5,1.49 1.1,3.09 1.61,4.57l26.59 78.42c0.49,1.49 1.19,3 1.65,4.53 0.47,1.56 1.05,3.1 1.47,4.7l44.41 147.08c0.65,1.89 2.66,7.16 3.3,9.06l3.12 9.23c0.62,1.92 2.2,7.62 2.82,9.53l12.35 37.07c0.5,1.52 1.01,3.15 1.51,4.67l52.68 169.7c0.51,1.47 1.15,3.05 1.65,4.52l145.12 447.89c0.65,1.89 2.77,7.04 3.36,8.99l36.83 123.77c0.51,1.49 1.11,3.08 1.61,4.57 2.83,8.47 5.09,16.53 7.44,23.44 0.65,1.89 2.66,7.16 3.3,9.06l31.93 97.8c0.51,1.47 1.06,3.14 1.61,4.56l8.06 16.65 -901.87 0 15.3 -40.3c0.49,-1.5 1.1,-3.09 1.6,-4.58 0.5,-1.48 1.13,-3.06 1.64,-4.53l14 -41.6c0.51,-1.48 1.11,-3.07 1.61,-4.57l12.36 -37.06c1.92,-5.79 2.44,-8.43 4.33,-14.2 0.49,-1.52 1,-3.16 1.5,-4.67l6.52 -18.19c2.36,-7.07 3.48,-11.8 5.84,-18.87l23.19 -69.46c0.5,-1.52 1.01,-3.15 1.51,-4.67l6.52 -18.18c1.93,-5.8 2.45,-8.44 4.33,-14.21 0.5,-1.53 1.01,-3.16 1.51,-4.67l6.52 -18.19c2.82,-8.48 5.08,-16.53 7.44,-23.44l9.24 -27.83c0.49,-1.52 1,-3.15 1.51,-4.67l10.84 -32.39c0.5,-1.52 1.01,-3.16 1.51,-4.66l35.56 -106.53c0.49,-1.52 1,-3.15 1.51,-4.66l17.26 -50.69c0.51,-1.48 1.11,-3.07 1.61,-4.56l13.63 -41.97c2.51,-11.53 0.98,-14.84 4.23,-26.66l29.77 -87.59c1.9,-5.61 3.44,-11.17 5.93,-18.77 0.51,-1.53 0.93,-3.23 1.45,-4.73l56.18 -166.21c2.82,-8.47 5.08,-16.53 7.44,-23.44l4.91 -13.62c0.5,-1.51 1.01,-3.15 1.51,-4.67 0.62,-1.91 2.2,-7.62 2.82,-9.53l6.41 -18.3c0.51,-1.48 1.11,-3.07 1.61,-4.56 1.94,-5.8 2.46,-8.43 4.33,-14.2 0.5,-1.53 1.01,-3.16 1.51,-4.67l6.52 -18.2c2.35,-7.07 3.48,-11.8 5.83,-18.87 0.5,-1.49 1.11,-3.08 1.61,-4.57 0.51,-1.47 1.15,-3.05 1.65,-4.52 0.51,-1.47 1.15,-3.05 1.65,-4.53l51.03 -152.82c0.51,-1.51 1.01,-3.15 1.51,-4.67l23.19 -69.46c2.33,-6.98 3.54,-11.87 5.84,-18.87 0.49,-1.5 1.1,-3.08 1.6,-4.57l14.1 -41.51c1.06,-1.47 4.83,-5.11 6.16,-6.19 6.57,-5.39 1.13,-2.2 12.29,-6.24zm-210.03 -827.73c0,34.34 -6.22,38.09 -17.04,69.43l-17 63.3c-0.51,1.49 -1.06,3.13 -1.56,4.63 -0.51,1.52 -0.93,3.2 -1.44,4.74l-135.94 419.99c-0.5,1.54 -0.92,3.22 -1.43,4.75l-49.37 160.65c-0.5,1.52 -1,3.15 -1.51,4.67l-92.9 290.08c-0.51,1.49 -1.05,3.12 -1.55,4.62l-7.64 23.25c-0.51,1.47 -1.15,3.05 -1.65,4.52 -0.51,1.49 -1.11,3.08 -1.61,4.58l-16.68 51.26c-0.49,1.52 -1.01,3.16 -1.51,4.66l-65.03 206.77c-0.51,1.47 -1.14,3.05 -1.65,4.53l-33.76 102.13c-0.55,1.59 -2.76,7.46 -3.31,9.06l-26.21 91.14c-0.52,1.49 -1.05,3.12 -1.56,4.62l-67.53 216.63c-0.45,1.52 -1.15,3.03 -1.65,4.52l-63.65 189.61c-0.51,1.49 -1.11,3.08 -1.6,4.57l-32.16 97.56c-0.54,1.6 -2.76,7.47 -3.3,9.06l-12.59 36.83c-0.47,1.55 -1.05,3.1 -1.47,4.71l-32.06 110.01c-0.5,1.47 -1.14,3.05 -1.65,4.53l-38.71 115.71c-1.54,4.47 -2.56,7.93 -4.55,13.98l-16.63 63.68c-0.45,1.52 -1.15,3.04 -1.65,4.53l-23.28 69.36c-0.65,1.89 -2.66,7.16 -3.3,9.06l-45.89 151.78c-0.46,1.52 -1.16,3.04 -1.65,4.52l-3.4 8.97c-1.98,5.81 -2.48,8.25 -4.41,14.11l-15.49 46.29c-0.64,1.89 -2.65,7.17 -3.3,9.05 -2.35,6.91 -4.62,14.97 -7.44,23.45l-66.68 211.29c-0.51,1.48 -1.11,3.07 -1.6,4.56l-53.75 162.46c-0.5,1.52 -1.01,3.15 -1.51,4.67 -0.5,1.49 -1.1,3.08 -1.61,4.56l-17.27 50.69c-2.36,7.04 -3.54,11.8 -5.93,18.78l-16.99 63.3c-1.77,5.13 -3.58,10.97 -6.1,18.61l-31.14 92.41c-0.5,1.48 -1.11,3.07 -1.6,4.57 -0.51,1.51 -1.02,3.15 -1.51,4.67l-21.59 64.88c-1.54,4.47 -2.56,7.93 -4.55,13.99l-9.51 27.55c-2.51,9.59 -1.27,7.17 -2.82,15.71l-52.34 163.86c-0.5,1.5 -1.1,3.08 -1.61,4.57l-53.11 144.55c-0.64,1.26 -1.44,2.86 -2.06,4.11 -3.15,6.3 -1.01,1.94 -4.11,8.26 -0.62,1.27 -1.41,2.87 -2.03,4.14l-36.06 50.42c-11.22,10.95 -18.28,18.18 -27.82,27.78l-39.16 34.96c-2.44,1.42 -5.72,2.78 -8.15,4.21l-143.53 91.19c-0.16,0.11 -13.49,10.95 -13.65,11.07 -1.07,0.76 -2.54,1.8 -3.65,2.53l-213.78 95.07c-1.84,0.7 -6.88,2.94 -8.61,3.74l-61.99 24.49c-1.49,0.51 -3.07,1.11 -4.57,1.61 -1.51,0.51 -3.14,1.02 -4.66,1.51l-37.07 12.36c-1.91,0.62 -7.62,2.19 -9.53,2.81l-46.3 15.48c-1.48,0.5 -3.06,1.13 -4.53,1.65 -1.47,0.51 -3.05,1.14 -4.53,1.65l-77.66 21.17c-1.94,0.59 -7.1,2.72 -8.98,3.37l-95.59 27.96c-11.21,2.19 -18.12,0.59 -28.79,2.09l-23.69 7.19c-1.53,0.48 -3.04,1.14 -4.61,1.57l-35.79 7.45c-1.49,0.47 -2.94,1.29 -4.41,1.77 -4.05,1.32 3.38,1.24 -13.89,4.63 -20.34,3.99 -22.91,-0.82 -43.62,5.8 -16.56,5.29 11.39,0.8 -18,6.72 -30.91,6.22 -28.13,-0.61 -69.25,11.05 -27.27,7.72 -58.07,-1.93 -85.84,6.81l-13.47 5.06c-20.47,5.37 -32.98,-2.4 -40.18,15.43 -17.69,7.14 -11.68,10.69 -17.62,32.37 -3.89,14.2 -2.76,-5.12 -2.41,11.08 0.01,0.78 0.18,2.51 0.31,3.3 0.14,0.83 0.73,2.55 0.98,3.4l5.7 11.39c0.65,1.24 1.6,2.84 2.27,4.11 0.68,1.29 1.57,2.89 2.25,4.18l8.52 16.65 722.73 0c22.88,-0.02 51.56,-4.78 74.27,-0.16 18.78,3.82 11.85,-3.68 18.39,12.51l1173.64 0c5.04,-13.91 10.3,-19.49 24.72,-24.71l0 -49.42c-16.36,-6.6 -11.53,12.71 -12.36,-24.7l-49.42 0c-9.27,-22.97 3.72,-3.89 -20.18,-16.89l-37.71 -17.88c-8.35,-4.3 -5.11,-2.16 -11.94,-6.59l-189.77 -217.91c-0.63,-1.26 -1.52,-2.79 -2.13,-4.06l-5.78 -12.75c-0.55,-1.44 -1.09,-3.1 -1.6,-4.57l-9.09 -27.97c-0.5,-1.49 -1.19,-3.01 -1.65,-4.54l-7.24 -36c-0.43,-1.56 -1.09,-3.08 -1.58,-4.6 -11.1,-34.8 -15.84,-110.88 -3.76,-148.7 0.48,-1.48 1.25,-2.98 1.75,-4.42l46.52 -138.8c0.49,-1.5 1.1,-3.09 1.6,-4.57l6.43 -18.29c1.87,-5.78 2.39,-8.41 4.32,-14.2l24.71 -74.13c0.5,-1.5 1.1,-3.09 1.61,-4.57l23.1 -69.55c0.5,-1.5 1.1,-3.09 1.61,-4.58l6.42 -18.29c1.87,-5.77 2.39,-8.4 4.32,-14.2l52.35 -170.03c0.55,-1.35 1.42,-2.85 2.03,-4.14l86.43 -259.5c0.5,-1.48 1.11,-3.07 1.61,-4.57l13.86 -41.72c1.87,-5.78 2.39,-8.41 4.33,-14.21l23.2 -69.45c0.49,-1.52 1,-3.16 1.51,-4.67l77.73 -231.12c1.61,-4.63 1.32,3.08 4.6,-13.94 1.72,-8.93 1.23,-14.46 1.23,-23.48l1186 12.36c21.55,8.7 7.15,1.99 15.63,27.61l43.13 142.18c1.99,5.82 2.48,8.25 4.41,14.12l9.55 27.52c2.58,7.94 3.84,12.63 5.93,18.77 0.51,1.48 1.15,3.05 1.65,4.53l3.26 9.09c1.94,5.8 2.46,8.43 4.33,14.21l9.54 27.52c1.87,5.78 2.39,8.41 4.32,14.21l10.85 32.39c0.49,1.53 1.01,3.16 1.51,4.67l3.26 9.09c0.51,1.48 1.14,3.06 1.65,4.53l12.35 37.06c1.99,5.8 3.49,11.27 5.99,18.73l21.79 77.04c1.88,5.63 2.46,8.45 4.38,14.16l23.2 69.45c0.49,1.52 1,3.16 1.51,4.67l114.44 355.01c0.51,1.47 1.15,3.05 1.65,4.53l12.36 37.06c0.5,1.48 1.11,3.08 1.61,4.57l26.16 91.2c1.88,5.62 2.46,8.45 4.38,14.15l15.61 46.16c0.51,1.47 1.15,3.05 1.65,4.53 0.51,1.48 1.12,3.07 1.61,4.57l23.33 69.32c12.42,41.07 21.37,96.68 8.82,136.13l-12.35 49.42c-0.35,0.77 -4.81,8.9 -6.46,12.06l-30.84 61.83c-0.62,1.28 -1.33,2.93 -1.97,4.2l-103.99 112.21c-3.27,3.05 -8.41,7.42 -10,8.53 -1.08,0.76 -2.67,1.66 -3.8,2.38l-53.02 33.46c-1.12,0.71 -2.64,1.7 -3.73,2.45l-96.1 52.15c-1.53,0.51 -3.2,0.93 -4.76,1.41 -1.58,0.49 -3.3,0.81 -4.89,1.29l-55.6 24.71 12.36 61.77c8.81,21.82 -1.02,5.75 27.49,15.75l9.1 3.26c46.91,15.57 1069.71,5.7 1124.71,5.7l1037.76 0.01c27.85,0.1 50.67,1.66 74.27,-6.04l25.02 -5.87c28.25,-5.95 15.03,10.02 24.25,-12.81 19.68,-7.95 12.35,7.55 12.35,-61.77 -15.19,-5.5 -7.36,-3.68 -12.35,-6.18 -1.09,-0.54 -2.92,-1.45 -4.12,-2.06 -1.2,-0.59 -2.87,-1.43 -4.12,-2.06l-61.6 -31.05c-6.38,-4.15 -2.64,-2.14 -10.49,-8.04 -1.45,-1.09 -5.4,-4.43 -6.9,-5.46 -47.15,-32.46 -84.95,-74.29 -126.09,-114.82l-25.72 -36.05c-19.67,-30.98 -15.46,-11.95 -44.88,-66.3l-34.52 -51.97c-5.26,-7.17 -8.46,-10.22 -10.84,-13.87l-33.11 -65.71c0,0 -4.12,-8.23 -4.13,-8.24l-68.82 -147.36c-0.49,-1.51 -1.09,-3.1 -1.6,-4.59l-6.36 -18.35c-3.36,-10.66 -1.78,-8.62 -5.75,-18.95l-29.85 -75.16c-2.35,-7.06 -3.49,-11.82 -5.84,-18.87l-4.91 -13.63c-2.1,-6.14 -3.35,-10.82 -5.93,-18.77 -0.49,-1.52 -1.01,-3.15 -1.51,-4.67l-29.62 -87.75c-0.5,-1.48 -1.11,-3.07 -1.61,-4.56 -1.93,-5.8 -2.45,-8.43 -4.33,-14.21l-8.02 -22.86c-0.5,-1.51 -1.02,-3.15 -1.51,-4.67 -2.58,-7.94 -3.84,-12.63 -5.94,-18.76l-29.61 -87.75c-0.51,-1.52 -1.02,-3.15 -1.52,-4.67 -0.5,-1.55 -0.91,-3.22 -1.4,-4.77l-10.9 -32.35c-2.08,-6.58 -1.74,-7.46 -4.14,-14.38l-105.58 -302.11c-0.51,-1.51 -1.02,-3.15 -1.51,-4.67l-32.3 -97.42c-0.51,-1.47 -1.15,-3.05 -1.65,-4.53l-54.04 -149.8c-2.17,-6.94 -2.69,-8.9 -4.44,-14.09l-89.77 -268.5c-0.51,-1.49 -1.11,-3.08 -1.61,-4.57l-15.27 -46.5c-0.5,-1.55 -0.91,-3.22 -1.42,-4.77l-3.11 -9.23c-0.51,-1.48 -1.14,-3.06 -1.65,-4.53l-3.26 -9.1c-0.5,-1.51 -1.02,-3.14 -1.51,-4.67l-21.8 -64.67c-0.18,-0.37 -8.45,-15.71 -8.63,-16.08l-15.87 -45.9c-2.05,-6.02 -3.38,-10.92 -5.93,-18.78l-21.89 -64.59c-1.88,-5.78 -2.4,-8.4 -4.33,-14.2l-6.52 -18.2c-1.93,-5.79 -2.45,-8.42 -4.33,-14.2l-17.12 -50.82c-0.51,-1.47 -1.14,-3.05 -1.65,-4.53l-30.64 -92.9c-0.5,-1.52 -1.01,-3.16 -1.51,-4.66 -0.5,-1.5 -1.1,-3.09 -1.61,-4.58 -0.51,-1.47 -1.14,-3.05 -1.65,-4.52l-3.26 -9.1c-0.5,-1.51 -1.01,-3.15 -1.51,-4.67l-21.82 -64.66c-0.08,-0.18 -5.16,-9.11 -6.59,-11.93 -0.64,-1.24 -1.59,-2.73 -2.18,-4l-3.82 -8.54c-0.51,-1.51 -1.04,-3.11 -1.47,-4.7 -4.53,-16.66 -0.93,-19.78 -6.65,-36.59 -0.5,-1.45 -1.22,-3.01 -1.79,-4.39l-16.17 -33.24c-0.53,-1.51 -0.95,-3.2 -1.45,-4.74 -2.55,-7.91 -3.55,-12.34 -5.78,-18.92l-23.08 -69.57c-0.5,-1.5 -1.11,-3.09 -1.62,-4.57l-4.9 -13.63c-0.51,-1.5 -1.02,-3.14 -1.51,-4.66l-21.59 -64.89c-0.51,-1.48 -1.11,-3.07 -1.61,-4.57l-47.81 -143.68c-1.63,-4.77 -2.41,-7.41 -4.53,-14.01 -2.08,-6.49 -2.95,-9.38 -4.52,-14l-65.07 -182.01c-0.51,-1.49 -1.12,-3.08 -1.62,-4.57l-60.16 -180.74c-0.5,-1.49 -1.11,-3.08 -1.6,-4.57 -1.93,-5.8 -2.45,-8.43 -4.34,-14.21 -0.49,-1.52 -1,-3.16 -1.5,-4.66l-47.14 -138.17c-2.26,-12.6 1.6,-0.43 -3.43,-15.12l-22.11 -64.36c-3.05,-14.16 -1.41,-7.68 -6.41,-18.31l-21.36 -52.75c-1.77,-5.26 -1.51,-3.82 -3.3,-9.06 -1.57,-4.63 -2.44,-7.52 -4.52,-14.01l-6.18 -18.53c-0.51,-1.47 -1.14,-3.05 -1.65,-4.53l-91.05 -267.21c-0.64,-1.23 -1.62,-2.7 -2.25,-3.93l-15.91 -58.22c-0.55,-1.35 -1.42,-2.86 -2.04,-4.15 -0.6,-1.26 -1.55,-2.74 -2.19,-3.98l-6.74 -11.78c-0.82,-1.72 -3.18,-6.65 -3.82,-8.54 -9.06,-26.5 -6.88,-36.54 -20.72,-65.76l-17.49 -50.46c-11.61,-34.9 -24.99,-63.55 -27.6,-95.94 -0.61,-7.51 0.27,-9.11 -1.26,-17.28 -2.69,-14.44 -1.47,-7.47 -6.6,-18.11 -0.16,-0.35 -5.02,-8.55 -6.69,-11.83 -0.64,-1.24 -1.53,-2.77 -2.14,-4.05l-3.74 -8.6c-0.55,-1.45 -1.09,-3.09 -1.6,-4.58l-5.42 -19.29c-0.5,-1.49 -1.04,-3.14 -1.59,-4.59l-16.11 -33.3c-0.56,-1.44 -1.1,-3.09 -1.61,-4.57l-42.57 -99.5c-6.12,-8.12 -4.41,-5.16 -9.78,-14.94 -0.66,-1.22 -1.4,-2.87 -2.05,-4.12l-14.18 -29.06c-0.72,-1.44 -3.39,-6.8 -4.11,-8.24l-18.51 -37.09c-0.62,-1.27 -1.41,-2.87 -2.04,-4.14l-8.04 -16.66c-5.32,-9.71 -3.78,-6.89 -9.75,-14.95 -2.28,-3.06 -8.16,-10.1 -8.27,-10.27l-4.72 -7.63c-22.6,-37.57 -80.67,-111.37 -117.25,-129.84 -1.28,-0.64 -2.93,-1.35 -4.2,-1.97l-12.52 -6.03c-4.63,-2.25 -9.29,-4.59 -12.42,-6.1 -24.2,-11.77 -44.21,-32.81 -69.62,-41.58 -43.73,-15.08 -993.6,-3.08 -1194.59,-3.78 -48.76,-0.17 -71.08,1.25 -111.27,18.44 -22.38,9.58 -49.22,16.68 -68.09,30.75l-138.72 102.19c-21.49,21.55 -47.32,40.46 -62.79,66.93l-32.48 41.65c-0.76,1.07 -1.67,2.66 -2.39,3.78l-37.12 61.72c-0.83,1.71 -3.12,6.7 -4,8.34l-49.48 98.78c-0.64,1.24 -1.5,2.8 -2.14,4.04l-4.21 8.14c-0.65,1.24 -1.46,2.84 -2.1,4.08l-24.26 62.22c-0.51,1.48 -1.11,3.08 -1.61,4.57l-7.61 23.27c-6.8,19.77 0.22,-9.43 -6.04,18.68 -1.59,7.18 -1.09,9.72 -2.36,16.16 -6.37,32.13 -19.41,56.41 -23.65,87.54 -3.21,23.51 1.45,45.31 -6.5,67.63 -0.5,1.42 -1.39,2.85 -1.88,4.29 -0.49,1.47 -1.27,2.94 -1.7,4.48 -6.39,22.44 -5.71,60.27 -2.3,83.59 4.34,29.66 4.95,4.49 10.61,32.63l38.37 103.71 53.35 39.33c2.38,0.82 48.08,8.83 75.1,-3.83l12.04 -6.48c46.16,-28.01 75.35,-82.58 98.46,-130.11l39.26 -65.74c0.62,-1.28 1.39,-2.89 2.01,-4.17l63.01 -109.95c2.34,-3.16 8.06,-9.97 8.27,-10.27 0.75,-1.08 1.73,-2.6 2.46,-3.72l8.92 -15.78c24.34,-37.74 55.03,-65.83 71.74,-95.04 5.42,-9.47 0.07,-2.4 7.03,-11.5l32.02 -23.57c1.19,-0.69 2.84,-1.47 3.98,-2.2 1.13,-0.71 2.72,-1.62 3.8,-2.38 12.11,-8.57 10.34,-11.57 22.2,-21.04l81.25 -48.46c1.27,-0.63 2.86,-1.43 4.12,-2.07l24.47 -12.58c11.1,-5.07 0.18,-0.79 13.22,-5.32 7.68,-2.66 11.29,-3.14 18.99,-5.72 14.88,-4.97 14.69,-8.88 33.92,-9.31z"/>
   <path class="fil0" d="M25134.48 2778.82c0,4.98 -0.77,28.03 -0.15,31.04 3.82,18.78 -3.7,11.84 12.5,18.38 11.06,27.38 54.63,-0.05 132.67,21.76l184.43 118.25c4.54,7.11 2.28,3.91 6.44,12.1l30.21 74.79c1.44,4.2 2.66,8.26 4.55,13.98l22.1 89.09c12.02,42.72 0.42,2915.98 2.61,3283.67 0.14,23.97 2.34,43.76 -4.32,63.63 -15.56,46.41 0.5,56.28 -28.41,119.83l-16.41 33.01c-20.42,38.63 -67.97,53.01 -106.79,66.17l-54.14 13.81c-29.53,9.07 -40.52,-3.43 -49.4,18.55l-12.35 61.77c37.41,0.84 18.11,-4 24.71,12.36l1667.82 0c0.83,-37.42 -4,-18.11 12.36,-24.71l0 -37.07 -16.48 -8.23c-1.2,-0.6 -2.87,-1.43 -4.11,-2.06l-114.67 -58.3c-1.83,-1.28 -14.96,-11.8 -17.47,-13.41l-29.8 -19.61c-0.95,-0.86 -2.23,-2.16 -3.15,-3.04l-57.33 -109.44c-1.71,-5.51 -1.84,0.75 -3.66,-14.87 -7.59,-64.88 13.86,-44.43 -12.77,-55.18l0 -2100.22 29.17 -20.25c8.62,-5.56 7.16,-3.35 15.78,-8.92l115.32 -63.81c1.38,-0.57 2.94,-1.29 4.39,-1.79 1.51,-0.52 3.12,-1.04 4.71,-1.47l36.13 -7.11c34.53,-10.99 76.33,-8.84 116.16,-8.29 29.74,0.4 37.68,8.52 61.38,12.75l61.95 24.53c9.67,5.31 6.91,3.78 14.95,9.76l108.76 113.61 15.01 40.59c0.5,1.46 1.18,3.02 1.7,4.47 0.51,1.45 1.27,2.96 1.77,4.41l5.53 2044.69 -13.69 54.26c-0.38,1.72 -0.76,3.31 -1.2,4.98 -0.42,1.6 -1,3.14 -1.47,4.7 -0.46,1.53 -1.15,3.04 -1.65,4.54l-6.29 18.41c-0.49,1.57 -0.84,3.28 -1.34,4.84l-17.57 38.02c-0.62,0.86 -5.77,7.41 -8.45,10.08 -1.16,1.15 -12.81,10.15 -13.89,10.82l-158.22 64.16c-19.03,3.98 -26.58,2.19 -41.91,13.68 -18.3,13.69 8.91,2.9 -18.18,12.7l0 37.07c13.91,5.03 19.49,10.29 24.71,24.71l1581.34 0c6.6,-16.36 -12.7,-11.52 24.71,-12.36l0 -61.77 -56.24 -24.06c-39.12,-6.98 -44.28,-15.66 -71.6,-33.41 -4.55,-2.96 -11.38,-6.23 -16.17,-8.53 -1.3,-0.63 -2.94,-1.32 -4.25,-1.94 -1.29,-0.62 -2.94,-1.32 -4.23,-1.94l-98.73 -111.3c-0.63,-1.26 -1.43,-2.86 -2.07,-4.1 -0.63,-1.25 -1.44,-2.85 -2.09,-4.09 -13.32,-25.61 -13.01,-34.36 -17.07,-63.24 -3.97,-28.3 -11.72,-24.43 -12.16,-55.78l0.46 -766.42c0,-59.88 8.45,-1193.29 -4.29,-1231.13l-3.77 -8.59c-0.49,-1.48 -1.27,-2.94 -1.7,-4.47 -7.48,-26.27 1.07,-56.4 -2.88,-83.6 -4.22,-28.95 -9.24,-18.19 -12.07,-49.71l-24.65 -105.07c-4.75,-26.74 -18.85,-52 -27.47,-77.54l-32.3 -66.54c-0.62,-1.26 -1.42,-2.86 -2.04,-4.12l-21.9 -39.88c-4.59,-6.12 -9.01,-10.95 -10.88,-13.82l-12.4 -24.66c-10.5,-21.97 -23.19,-33.59 -41.41,-51.25l-218.05 -177.3 -78.26 -32.92c-1.36,-0.58 -2.98,-1.25 -4.39,-1.79l-137.87 -28.91c-7.8,-0.31 -9.28,0.22 -17.16,-1.37 -24.65,-5 -25.09,-11.51 -56.52,-11.43 -23.39,0.06 -59.1,-1.78 -80.89,0.13 -27.76,2.42 -40.98,13.22 -73.89,12.58l-45.14 4.28c-13.72,4.54 5.22,-0.73 -8.63,3.72 -15.26,4.9 -0.83,2.1 -20.59,4.13l-32.7 4.35c-1.51,0.46 -3,1.22 -4.46,1.72 -1.46,0.5 -2.97,1.26 -4.42,1.77 -1.45,0.51 -3.01,1.19 -4.47,1.71 -1.47,0.52 -3.11,1.06 -4.59,1.57 -6.81,2.34 -13.99,4.57 -18.56,6.15l-181.78 65.31c-1.26,0.64 -2.85,1.43 -4.11,2.06l-49.42 24.71c-1.69,0.85 -6.54,3.28 -8.23,4.12l-180.69 103.46c-1.48,1.06 -5.43,4.39 -6.78,5.58 -8.06,7.13 -10.27,12.58 -22.74,20.5 -8.15,5.17 -4.95,2.19 -12.12,6.41l-53.41 39.25c-20.12,12.64 -36.43,34.76 -57.79,47.22 -19.04,11.12 -29.14,25.66 -45.08,41.4l-24.96 18.27c0,-533.28 -6.71,-1067.08 0.47,-1600.35 0.28,-20.54 4.12,-35.92 -12.83,-42.76l0 -98.83c-13.91,-5.04 -19.49,-10.3 -24.71,-24.72l-61.77 0c-7.31,18.13 2.54,3.46 -13.57,11.14l-27.73 9.34c-1.58,0.45 -3.11,1.03 -4.73,1.44l-133.83 39.14c-9.99,1.92 -10.3,0.7 -21.16,3.54 -1.6,0.42 -3.15,1 -4.71,1.47l-27.55 9.51c-1.49,0.51 -3.12,1.05 -4.61,1.57 -1.47,0.5 -3.03,1.17 -4.5,1.68l-13.69 4.83c-9.6,2.51 -7.17,1.28 -15.71,2.83l-160.6 49.42c-1.92,0.34 -3.57,0.35 -5.46,0.72l-19.49 5.22c-1.47,0.48 -3,1.21 -4.46,1.72l-36.89 12.52c-1.49,0.5 -3.08,1.11 -4.57,1.61 -8.13,2.73 -17.19,5.51 -23.28,7.61l-163.67 46.35c-1.72,0.37 -3.31,0.75 -4.98,1.19 -1.61,0.42 -3.15,1 -4.71,1.48l-279.34 85.1c-1.5,0.49 -3.09,1.1 -4.57,1.6 -1.47,0.51 -3.05,1.15 -4.53,1.65l-190.76 56.32c-1.85,0.35 -3.48,0.51 -5.28,0.9 -1.72,0.39 -3.31,0.77 -4.98,1.21l-36.87 12.53c-1.47,0.51 -3.03,1.18 -4.5,1.69l-222.95 73.55c-1.25,0.62 -2.92,1.46 -4.12,2.05 -4.99,2.5 2.84,0.68 -12.35,6.18z"/>
   <path class="fil0" d="M11791.91 4977.87l0 1568.99c-13.77,4.98 -12.27,4.05 -20.7,16.36l-24.19 37.58c-12.57,20.24 -5.05,24.55 -41.34,38.96l-45.96 15.82c-37.77,10.06 -77.82,4.9 -111.78,-6.82l-32.18 -11.06c-0.24,-0.11 -9.51,-4.93 -12.23,-6.3 -1.26,-0.63 -2.84,-1.45 -4.1,-2.08 -28.89,-14.4 -38.7,-19.66 -65.98,-51.38l-16.64 -26.61c-2.01,-3.14 -6.29,-8.03 -10.71,-13.98l-19.94 -35.67c-0.63,-1.25 -1.49,-2.8 -2.11,-4.06 -0.63,-1.26 -1.52,-2.78 -2.13,-4.06l-14.82 -40.77c-6.15,-17.32 0.24,6.7 -5.12,-13.41 -6.68,-25.09 -2.46,-644.87 -2.46,-726.43l2.58 -120.95c20.27,-71.38 3.78,-31.3 10.99,-69.31 3.27,-17.21 2.98,-9.24 4.6,-13.94l31.01 -80.19c13.2,-41.84 7.18,-5.22 31.12,-55.35l46.03 -71.34c0.75,-1.05 1.9,-2.45 2.64,-3.53l9 -15.71c18.08,-30.37 87.31,-83.49 104.82,-111.38l8.58 -16.12c6.22,-9.91 163.6,-170.95 181.02,-177.26zm1420.74 1371.32l0 -24.7c-13.91,-5.04 -19.49,-10.3 -24.71,-24.72l-74.13 0c-9.27,22.98 3.72,3.88 -20.18,16.89l-62.8 29.86c-7.82,2.72 -11.12,3.05 -18.97,5.74l-89.83 21.35c-10.39,1.52 -31.47,0.29 -42.94,0.29l-1.23 -1209.49c-4.05,-18.78 -2.94,-7.94 -4.95,-13.58l-3.59 -8.76c-2.5,-8.8 -1.95,-5.63 -2.82,-15.71 -5.88,-67.35 0.23,-456.27 0.23,-556.18 0,-122.7 20.01,-209.14 -17.05,-316.51l-83.97 -181.65c-0.7,-1.15 -1.54,-2.77 -2.28,-3.89l-22.33 -33.27c-5.52,-9.22 -0.11,-2.33 -7.25,-11.28l-163.57 -157.63c-1.19,-0.7 -2.85,-1.46 -4.03,-2.16l-44.7 -29.42c-31.9,-22.13 -54.7,-25.98 -87.22,-42.5l-8.04 -4.31c-1.31,-0.61 -2.88,-1.39 -4.22,-1.96 -1.36,-0.59 -2.98,-1.25 -4.39,-1.79l-23.64 -7.24c-1.51,-0.49 -3.1,-1.09 -4.59,-1.59l-148.43 -36.88c-37.27,-11.97 -89.01,-0.64 -123.6,-12.3 -1.45,-0.48 -2.88,-1.37 -4.3,-1.88 -17.94,-6.4 -57.68,-4.79 -80.74,-5.73 -18.49,-0.76 -12.47,-0.13 -26.15,-4.74 -17.09,-5.76 12.11,-2.61 -23.12,-7.77 -15.55,-2.27 -50.15,-0.31 -67.66,-0.29 -85.81,0.07 -496.83,-11.58 -547.17,2.59l-51.36 10.42c-14.42,2.06 -8.74,1.75 -14.82,3.69 -1.47,0.47 -2.89,1.36 -4.34,1.85l-8.81 3.55c-22.75,6.18 -42.69,1 -65.36,8.76l-62.08 12.05c-1.45,0.5 -2.96,1.25 -4.41,1.76l-126.9 46.06c-1.44,0.52 -3.07,1.15 -4.46,1.72 -1.37,0.56 -2.99,1.25 -4.31,1.86 -1.76,0.79 -6.61,3.22 -8.24,4.11l-61.59 37.24c-1.22,0.66 -2.83,1.49 -4,2.19l-36.93 24.84c-1.17,0.7 -2.83,1.48 -3.97,2.21l-146.27 119.35c-0.19,0.19 -9.07,9.38 -9.11,9.41 -1.31,1.23 -5.02,4.8 -6.45,5.91l-49.42 37.06c-7.81,7.97 -8.98,8.98 -15.52,15.36l-20.31 22.93c-5.02,8 -2.26,5.04 -6.4,12.14l-31.84 36.11c-35.32,34.83 -68.85,79.57 -91.89,124.3l-50.17 110.44c-0.49,1.49 -1.16,3.04 -1.66,4.52l-24.36 111.53c-5.19,16.17 -2.64,-11.47 -7.7,23.18 -4.21,28.76 -0.22,72.59 7.53,96.89l63.46 158.92c11.77,15.85 -6.08,-9.2 5.62,6.74 0.76,1.04 1.91,2.44 2.65,3.52l4.74 7.61c0.4,0.65 3.96,7.34 4.36,7.99l65.67 82.58c21.49,22.02 52.18,41.54 80.28,55.63l16.26 8.44c37.9,18.71 62.17,14.82 105.96,23.78 19.55,4 33.9,15.43 63.1,4.84l43.44 -6.21c25.31,-1.01 39.22,-8.93 60.97,-13.17l23.94 -6.94c1.47,-0.5 3.03,-1.17 4.5,-1.68l36.99 -12.42c1.53,-0.5 3.15,-1 4.69,-1.49l76.57 -40.79c1.27,-0.64 2.93,-1.34 4.22,-1.97l12.71 -5.82c22.14,-10.97 34.05,-31.33 53.78,-45.05 36.43,-25.31 29.67,-18.87 55.62,-55.57 7.08,-10.01 11.22,-11.14 18.11,-18.95 12.2,-13.8 3.7,-3.86 12.31,-18.57 0.7,-1.18 1.45,-2.85 2.16,-4.02l49.51 -74.04c0.65,-1.26 1.35,-2.91 1.99,-4.18l16.35 -33.07c0.64,-1.24 1.47,-2.82 2.11,-4.07l22.37 -57.93c0.05,-0.1 5.19,-9.17 6.6,-11.94 0.63,-1.24 1.58,-2.72 2.17,-3.99l24.75 -98.79c5.3,-16.55 2.67,11.1 7.55,-23.35 3.25,-23.01 -3.57,-48.5 2.88,-71.24l5.47 -13.06c7.22,-21.42 4.39,-46.53 4.3,-69.82 -0.13,-37.7 -6.19,-88.85 6.17,-123.55 0.51,-1.43 1.4,-2.85 1.88,-4.3 0.5,-1.47 1.28,-2.94 1.71,-4.47 2.49,-8.85 1.97,-5.5 2.76,-15.77l5.62 -62.32 64.21 -96.4c1.2,-0.69 2.87,-1.43 4.07,-2.11 1.18,-0.69 2.85,-1.45 4.02,-2.15 1.17,-0.7 2.78,-1.55 3.92,-2.27 4.67,-2.98 5.02,-3.67 10.62,-7.9l39.75 -22.03c48.09,-16.38 112.23,-27.59 156.22,-0.93l23.72 19.51c6.48,6.48 10.4,10.23 14.71,16.18l20.41 47.54c0.49,1.51 1.03,3.14 1.54,4.64 15.2,44.07 0,100.5 13.59,140.84l8.12 449.1c0.22,24.82 2.17,45.72 -7.88,66.25l-25.71 60.77c-10.26,14.23 -22.74,16.98 -36.31,25.47 -24.63,15.42 -36.17,36.87 -61.77,49.42l-217.55 97.47c-1.5,0.5 -3.09,1.1 -4.58,1.6 -1.48,0.5 -3.06,1.14 -4.53,1.65l-154.34 55.68c-6.93,2.17 -8.9,2.69 -14.09,4.44 -1.48,0.5 -3.06,1.14 -4.53,1.65l-200.93 70.86c-1.5,0.5 -3.08,1.1 -4.57,1.61l-554.39 291.87c-2.24,2.3 -5.31,5.4 -9.2,9.33 -8.17,8.26 -10.25,10.38 -18.47,18.6l-55.6 55.58c-6.92,8.89 -1.79,2.23 -7.2,11.33l-88.69 170.75c-0.5,1.56 -0.89,3.25 -1.39,4.79 -0.5,1.5 -1.04,3.14 -1.55,4.63l-10.58 69.73c-7.38,36.44 -2.04,-8.96 -9.84,27.21 -14.17,65.82 5.02,152.56 -0.99,221.39 -4.91,56.2 -12.59,-14.66 -12.59,154.19 0,45.58 -5.61,227.11 2.56,256.88l3.5 8.86c0.48,1.46 1.3,2.92 1.78,4.4l65.88 218.26c7.14,12.94 2.92,5.37 7.21,11.32l20.18 29.24c0.64,1.27 1.34,2.92 1.96,4.21l7.84 16.88c0.65,1.23 1.44,2.85 2.12,4.05 13.6,23.65 64.86,74.94 88.92,90.21 1.15,0.73 2.81,1.51 3.98,2.21l106.8 66.15c1.28,0.62 2.82,1.47 4.12,2.06l41.42 14.17c1.47,0.51 3.05,1.15 4.53,1.65l32.3 10.94c1.49,0.49 3.01,1.19 4.53,1.65 1.56,0.47 3.1,1.05 4.71,1.47l64.89 15.41c75.19,6.49 746.23,-0.23 846.5,-0.23 50.56,0 666.14,9.09 706.07,-4.29 26.75,-8.98 28.03,-4.33 59.47,-8.48 40.76,-5.39 -4.64,-9.85 49.75,-12.03l57.13 -10.81c66.47,-13.35 20.48,1.99 89.55,-21.64 4.8,-1.64 7.39,-2.39 14.01,-4.53l46.73 -15.03c1.48,-0.52 3.13,-1.06 4.57,-1.61l8.61 -3.75c1.72,-0.81 6.35,-3.46 8.04,-4.31l144.14 -59.71c1.25,-0.63 2.85,-1.43 4.11,-2.06l45.3 -22.65c4.36,-2.16 9.39,-4.66 12.4,-6.13l210.02 -142.08c7.1,-4.14 4.14,-1.38 12.13,-6.39 22.71,-14.26 43.07,-39.71 55.81,-61.56 0.7,-1.18 1.47,-2.83 2.2,-3.98 14.56,-23.2 36.87,-35.98 49.2,-61.99 0.82,-1.72 2.92,-6.89 3.8,-8.56 12.77,-24.12 -5.94,-11.04 16.83,-20.23z"/>
   <path class="fil0" d="M19389.76 6769.23c0,21.49 -6.23,41.92 12.35,49.42 7.27,17.99 27.78,13.04 49.14,12.64 321.1,-5.91 642.8,-0.28 963.92,-0.28l895.67 0c115.25,0.04 83.15,-11.59 117.37,-12.36l0 -61.77 -66.46 -20.01c-6.07,-2.09 -15.16,-4.89 -23.28,-7.61l-149.29 -66.91c-35.14,-17.23 -88.57,-71.63 -106.94,-103.09l-4.42 -7.92c-0.71,-1.13 -1.7,-2.65 -2.45,-3.73 -1.35,-1.96 -12.11,-15.19 -13.55,-17.35l-24.65 -61.82c-0.47,-1.55 -1.05,-3.1 -1.47,-4.71l-15.62 -70.85c-0.73,-17.97 2.62,-44.92 0.15,-61.92 -5.47,-37.47 -12.11,2.11 -12.06,-111.49 0.01,-47.31 -9.34,-1280.78 5.7,-1316.2l78.72 -143.66c0.62,-1.26 1.42,-2.85 2.05,-4.12 0.83,-1.7 3.24,-6.57 4.08,-8.27 0.62,-1.28 1.38,-2.89 2.01,-4.17l162.88 -183.04 94.37 -47.7c16.62,-5.72 9.24,-2.43 26.97,-3.92 20,-1.7 9.58,1.11 26.78,-4.56 17.78,-5.86 -13.9,-7.18 22.66,-7.18 35.3,0 5.27,0.71 18.2,5.21l62.55 12.29c44.9,18.5 96.37,59.95 121.01,101.36 0.7,1.18 1.44,2.85 2.13,4.04l66.08 119.24c0.52,1.43 1.18,3.05 1.75,4.43l33.97 89.57c0.5,1.47 1.17,3.03 1.67,4.51 0.64,1.89 2.75,7.06 3.32,9.04 5.96,20.72 -1.47,37.72 16.7,45.05l0 61.78c13.91,5.03 19.49,10.29 24.71,24.7l49.42 0c4.71,-13.01 1.69,-5.86 9.29,-15.41l44.42 -54.42c12.46,-19.85 -8.6,10.15 4.99,-7.36l168.14 -202.49c0.72,-1.11 1.7,-2.64 2.45,-3.72l105.91 -221.48c0.38,-1.73 0.76,-3.31 1.19,-4.99 0.42,-1.61 1,-3.15 1.47,-4.71 0.59,-1.95 2.71,-7.1 3.36,-8.98l9.39 -27.68c0.51,-1.46 1.23,-2.99 1.72,-4.46l12.24 -49.53c9.22,-27.37 12.27,-186.56 4.83,-221.27 -0.36,-1.7 -0.91,-3.21 -1.36,-4.82 -0.43,-1.54 -1.21,-3 -1.7,-4.48l-3.71 -8.63c-0.48,-1.51 -1.23,-2.98 -1.65,-4.54 -8.15,-30.58 -5.29,-43.62 -19.58,-85.42 -1.45,-4.21 -1.87,-4.84 -3.3,-9.06l-7.22 -23.67c-0.51,-1.47 -1.06,-3.12 -1.61,-4.56l-94.35 -171.28 -231.4 -176.28 -74.06 -24.77c-14.15,-3.53 -14.61,-1.44 -28.07,-2.82 -15.01,-1.54 -80.71,-22.52 -134.89,-10.9l-32.77 10.47c-34.56,4.92 -57.5,8.19 -88.12,23.07l-20.36 10.52c-4.7,2.36 -11.74,5.86 -16.52,8.19 -1.7,0.84 -6.65,3.16 -8.35,4l-37.25 24.53c-1.13,0.72 -2.75,1.57 -3.91,2.27l-8.07 4.28c-35.21,20.95 -147.35,138.26 -173.17,178.93l-123.35 197.85c-0.12,0.24 -4.01,8 -4.12,8.24 -0.85,1.69 -3.27,6.54 -4.12,8.23 -0.63,1.26 -1.43,2.86 -2.06,4.12l-12.59 24.47c-0.61,1.27 -1.47,2.82 -2.06,4.12 -0.6,1.32 -1.37,2.89 -1.94,4.24 -0.58,1.38 -1.24,2.99 -1.77,4.4l-53.7 156.32 0 -593c-18.52,-6.71 -5.99,-0.21 -21.65,-15.42l-38.43 -23.34c-1.53,-0.49 -3.19,-0.96 -4.71,-1.47 -55.47,-18.49 -164.57,-14.21 -219.59,-9.42l-67.07 13.24c-14.24,1.99 -9.01,1.85 -14.89,3.64l-189.93 50.97c-1.34,0.56 -2.86,1.43 -4.15,2.03 -1.73,0.81 -6.26,3.56 -7.93,4.43l-234.68 55.65c-6.45,2.15 7.74,1.69 -19.18,5.52l-229.3 61.02c-1.54,0.5 -3.22,0.92 -4.76,1.42l-211.76 53.86c-1.94,0.59 -6.98,2.84 -8.92,3.43 -1.54,0.47 -3.05,1.11 -4.63,1.54 -1.65,0.45 -3.24,0.86 -4.94,1.25l-35.29 7.95c-4.05,1.31 3.38,1.24 -13.89,4.63l-52.32 9.45c-20.27,6.39 -17.87,2.09 -38.25,5 -43.98,6.28 2.99,3.21 -32.82,10.42l-56.18 5.59c-35.89,11.87 -101.68,8.03 -146.38,8.05 -29.34,0.01 -74.05,0.81 -97.41,-7.6l-139.52 -64.33 -77.62 -58.27c-41.51,-28.67 -37.06,-43.62 -44.47,-54.37l-22.47 -33.13c-12.68,-28.34 4.03,-44.39 -20.02,-54.1l0 -24.7c22.62,-8.19 5.45,-4.75 16.19,-8.52 40.08,-14.09 82.49,7.95 152.89,-26.25 1.7,-0.83 6.42,-3.4 8.1,-4.26 1.24,-0.64 2.82,-1.47 4.07,-2.11 15.16,-7.77 -7.09,3.55 8.19,-4.15l24.88 -12.19c27.3,-13.38 54.6,-39.5 72.9,-63l34.4 -52.07c0.9,-1.64 3.32,-6.49 4.11,-8.24 12.19,-26.9 15.3,-53.87 23.14,-81.88 0.43,-1.57 1.08,-3.09 1.57,-4.6 9.22,-28.89 11.24,-77.54 0.23,-108.11 -1.71,-4.74 -2.3,-6.51 -4.72,-13.81 -0.51,-1.53 -0.92,-3.22 -1.43,-4.75l-18.95 -55.17c-0.59,-1.31 -1.45,-2.84 -2.06,-4.12 -0.83,-1.71 -3.39,-6.43 -4.24,-8.12l-12.26 -24.8c-0.68,-1.18 -1.54,-2.77 -2.27,-3.9l-164.14 -120.01c-1.89,-0.65 -7.05,-2.77 -9,-3.36l-75.68 -17.22c-18.84,-1 -36.83,-0.05 -51.63,4.85l-86.71 24.49c-1.24,0.64 -2.84,1.45 -4.09,2.09l-107.19 65.77c-1.16,0.7 -2.83,1.46 -4.02,2.16 -16.17,9.47 -22.83,21.97 -49.36,37.11 -14.92,8.5 -4.95,0.31 -18.72,12.16l-46.35 46.31c-6.63,6.54 -10.39,9.87 -14.75,16.14l-4.56 7.79c-1.43,2.44 -2.78,5.71 -4.21,8.15l-74.08 111.23c-0.63,1.26 -1.43,2.86 -2.06,4.12l-39.47 77.89c-3.99,9.91 0.6,-8.41 -4.37,14.17 -1.93,8.79 -1.09,12.58 -3.15,21.55l-6.37 18.35c-0.46,1.52 -1.2,2.98 -1.6,4.57 -3.69,14.36 -1.5,14.26 -2.92,27.97l-5.97 24.91c-10.25,29.63 -13.42,109.06 -1.87,143.99 11.22,33.93 7.21,46.69 13.92,66.39l151.64 262.22c53.21,53.19 65.26,66.88 115.04,101.16l151.39 83.33c1.28,0.62 2.82,1.48 4.12,2.07l107.48 40.76c1.56,0.47 3.11,1.05 4.71,1.47 1.67,0.44 3.26,0.82 4.98,1.2 11.55,2.57 14.38,1.27 26.32,4.57 1.57,0.43 3.08,1.09 4.61,1.56 1.48,0.47 2.94,1.29 4.41,1.77l92.33 18.85c23.8,0.87 46.23,-2.14 68.38,5.76 1.42,0.5 2.85,1.4 4.28,1.89 1.48,0.49 2.95,1.26 4.48,1.7 32.86,9.34 114.88,8.02 143.07,0l17.54 -7.18c27.81,-7.89 59.29,1.88 85.78,-6.87 50,-16.52 19.02,2.5 102.76,-26.96l36.96 -6.28c51.99,-0.71 91.4,2.25 136.52,25l12.21 6.33c20.39,10.36 42.39,18.42 58.97,33.68 17.02,15.66 29.75,33.6 37.19,55.47 2.24,6.6 2.13,8.16 4.17,14.36 24.42,74.08 10.83,378.25 10.83,489.51l0.01 1179.83c0.01,17.65 1.18,38.94 0.44,56.04 -2.29,53.34 -6.62,8.91 -12.5,49.26 -2.48,17.01 0.88,43.95 0.15,61.93 -1.34,32.68 -7.33,15.86 -12.15,49.61 -1.17,8.22 -0.14,15.19 -1.3,23.42l-13.33 54.61c-0.38,1.72 -0.76,3.31 -1.2,4.98l-4.83 13.7c-1.78,5.14 -3.58,10.95 -6.1,18.61l-52.04 133.28c-0.62,1.26 -1.4,2.87 -2.03,4.14 -13.64,27.58 -32.4,45.34 -47.66,69.71l-37.06 37.06c-1.15,0.72 -2.8,1.5 -3.99,2.19 -1.18,0.7 -2.87,1.42 -4.07,2.11l-148.19 86.53c-33.6,17.7 -62.54,4.63 -95.07,16.12l-40.89 20.88z"/>
   <path class="fil0" d="M25060.35 5953.86l-98.83 0 -61.96 80.11c-11.89,13.83 -3.64,3.73 -12.17,18.72 -18.62,32.77 -206.36,220.77 -255.14,251.38 -1.13,0.71 -2.72,1.61 -3.81,2.37 -24.35,16.92 -40.92,42.12 -66.23,57.31l-197.94 129.45c-1.1,0.74 -2.63,1.7 -3.78,2.4 0,0 -11.74,6.18 -12.16,6.37 -1.74,0.79 -6.9,2.91 -8.76,3.59 -8.6,3.17 -5.96,1.79 -14.2,4.34l-18.62 6.08c-1.48,0.51 -3.05,1.14 -4.53,1.65l-23.32 7.56c-1.45,0.52 -3.01,1.2 -4.47,1.72l-41.81 7.6c-43.17,1.17 -38.58,12.61 -111.18,12.36 -37.78,-0.13 -90.44,5.13 -123.67,-6.06l-40.3 -9.13c-1.6,-0.41 -3.15,-1 -4.7,-1.47 -1.52,-0.46 -3.05,-1.15 -4.53,-1.65 -1.48,-0.49 -3,-1.21 -4.46,-1.71 -1.47,-0.51 -3.03,-1.18 -4.5,-1.68 -1.49,-0.51 -3.12,-1.06 -4.62,-1.56 -20.09,-6.72 10.74,3.81 -9.49,-2.86 -1.52,-0.5 -3.16,-1.01 -4.67,-1.51 -1.49,-0.5 -3.08,-1.1 -4.57,-1.61l-95.12 -40.78c-3.59,-1.78 -7.32,-3.67 -12.38,-6.15l-8.3 -4.04c-1.29,-0.63 -2.92,-1.36 -4.2,-1.99 -62.43,-30.98 -80.69,-58.78 -134.9,-112.18 -6.63,-6.53 -10.39,-9.87 -14.75,-16.14 -0.75,-1.08 -1.66,-2.68 -2.37,-3.81l-132.19 -213.71c-0.61,-1.32 -1.38,-2.9 -1.94,-4.25l-22.71 -69.95c-0.71,-1.83 -2.94,-6.87 -3.76,-8.6l-40.64 -126.13c-3.06,-15.72 -0.55,-10.7 -5.23,-25.65l-14.05 -66.26c-0.49,-1.43 -1.39,-2.86 -1.87,-4.31 -6.72,-20.44 -2.51,-36.92 -4.11,-57.66 -3.96,-51.49 -8.26,2.48 -12.75,-49.01 -7.84,-89.77 13.46,-363.95 -4.07,-415.99 -0.49,-1.44 -1.37,-2.87 -1.88,-4.29 -2.02,-5.64 -0.9,5.21 -4.95,-13.58 -9.1,-42.22 -0.8,-265.27 -1.46,-332.56l8.29 -53.49c11.46,-34.02 -2.59,-81.74 8.59,-114.95l5.47 -13.07c4.43,-15.76 3.87,-87.98 21.12,-139.48l33.71 -139.25c0.42,-1.61 1,-3.15 1.47,-4.7l82.19 -189.61c0.63,-1.26 1.43,-2.86 2.06,-4.12l59.71 -107.07c0.7,-1.17 1.47,-2.83 2.18,-4l20.32 -29.09c0.71,-1.17 1.47,-2.84 2.16,-4.02l41.41 -57.42c12.39,-19.49 -8.56,9.75 5.04,-7.32 12.59,-15.82 4.55,-3.06 15.46,-15.42l152.27 -131.88c1.27,-0.62 2.86,-1.42 4.12,-2.05l147.85 -62.64c1.67,-0.47 5.89,-1.91 7.37,-2.08l17.82 4.02c39.24,9.67 83.4,-2.53 119.98,10.65 4.75,1.71 6.47,2.29 13.81,4.72l9.41 2.94c1.5,0.5 3.09,1.1 4.58,1.6l54.78 25.53c1.07,0.76 2.56,1.78 3.67,2.5l11.93 6.6c27.95,16.74 49.92,45.7 73.33,68.76l17.13 19.93c0.72,1.14 1.5,2.8 2.2,3.97 4.16,7 1.61,4.23 6.55,11.98l51.33 78.38c0.57,1.4 1.2,3.02 1.73,4.46l47.51 156.34c1.61,4.66 1.09,-4.26 4.92,13.6 4.77,22.24 1.04,94.64 1.29,122.38 0.28,32.43 -5.1,78.84 -18.25,111.47 -0.54,1.36 -1.39,2.87 -2,4.18 -0.79,1.74 -3.44,6.37 -4.31,8.04l-42.71 74.66c-0.75,1.09 -1.74,2.61 -2.45,3.72 -0.72,1.14 -1.57,2.75 -2.26,3.91 -4.19,6.97 -1.5,4.18 -6.5,12.05 -4.37,6.88 -9.2,12.01 -13.98,16.9l-35.44 32.51c-8.01,5.02 -5.09,2.26 -12.13,6.4l-155.03 85.88c-1.51,0.49 -3.14,1.02 -4.65,1.52l-89.06 22.12c-52.69,2.25 -136.92,6.26 -185.48,-0.73l-72.76 -19.9c-1.29,-0.59 -2.79,-1.5 -4.05,-2.13l-65.77 -45.42c-13.86,-16.41 -4.36,2.75 -12.13,-18.74l-49.42 0 -32.76 66.07c-19.54,42.4 -37.2,91.23 -41.36,137.77 -5.82,64.99 -10.66,-7.7 -12.48,160.73 -0.24,22.18 -1.7,32.72 4.4,51.19l99.98 264.47 54.24 69.3c4.12,7.06 1.42,4.18 6.4,12.14 0.27,0.43 9.78,12.69 10.84,13.86l215.62 136.48c3.11,1.54 11.64,6.33 12.02,6.51 1.73,0.81 6.77,3.04 8.61,3.75l95.81 27.73c11.23,2.21 18.68,0.74 29.7,1.18 12.71,0.51 10.09,-0.57 22,2.71l22.38 8.51c32.65,7.03 77.01,2.15 110.41,1.68 23.81,-0.32 28.35,-7.08 50.25,-11.52 18.37,-3.72 32.54,1.21 51.72,-3.88l221.62 -81.05c3.76,-2.85 2.93,-2.83 6.69,-5.66l23.3 -13.77c0.03,-0.01 8.45,-3.86 8.47,-3.88l19.84 -11.05c0.11,-0.09 13.46,-10.78 13.74,-10.97l72.89 -50.65c1.56,-1.08 6.77,-5.5 10.01,-8.53l27.54 -28.05c18.49,-18.51 36.97,-37.26 55.62,-55.57 8.07,-7.92 19.86,-18.34 26.56,-29.02l61.78 -86.48c0.73,-1.12 1.66,-2.67 2.35,-3.83 0.44,-0.74 6.01,-11.86 6.23,-12.3l54.54 -124.6c0.5,-1.52 1,-3.15 1.48,-4.69l37.88 -116.55c1.16,-8.23 0.13,-15.19 1.3,-23.41 4.98,-35.02 2.15,-7.02 7.35,-23.52 6.53,-20.72 1.71,-28.47 7.06,-48.54 10.78,-40.41 9.66,-57.04 9.64,-101.55 -0.02,-76.19 -0.06,-152.37 0,-228.56 0.03,-27.45 4.19,-56.57 -4.28,-82.19l-20.41 -115.49c-1.31,-18.24 0.12,-7.1 -4.1,-20.61l-37.27 -98.62c-11.3,-30.25 -30.43,-50.64 -45.36,-78.19 -0.89,-1.64 -3.18,-6.64 -4,-8.35l-85.08 -124.94c-1.14,-1.23 -9.34,-8.96 -12.59,-12.12 -7.78,-7.6 -9.31,-9.29 -15.46,-15.42l-121.43 -113.3c-1.18,-0.69 -2.84,-1.47 -3.98,-2.2l-70.54 -53c-1.13,-0.73 -2.75,-1.58 -3.9,-2.28 -1.16,-0.72 -2.82,-1.48 -4,-2.19l-94.6 -59.82c-1.17,-0.7 -2.78,-1.52 -3.98,-2.19 -1.64,-0.89 -6.62,-3.2 -8.31,-4.05l-198.7 -79.27c-5.7,-1.91 -8.53,-2.49 -14.15,-4.37l-186.75 -41.81c-8.91,-3.08 10.68,-1.56 -18.85,-5.86 -6.68,-0.97 -23.06,-0.6 -30.43,-0.46 -50.22,0.92 -61.09,-12.13 -98.54,-12.64l-167.69 0c-53.33,2.3 -8.91,6.62 -49.26,12.51 -14.59,2.13 -40.08,-0.31 -55.75,-0.15l-40.92 8.5c-1.48,0.49 -2.94,1.26 -4.49,1.69l-69.68 10.62c-16.8,5.36 -7.35,2.63 -26.54,4.35l-35.39 7.84c-1.52,0.48 -3.05,1.13 -4.61,1.57l-117.77 30.47c-1.62,0.42 -3.16,1 -4.72,1.47l-18.15 6.56c-10.31,3.34 -8.78,1.89 -18.91,5.8l-234.91 104.83c-1.26,0.63 -2.85,1.43 -4.12,2.05 -1.27,0.63 -2.86,1.42 -4.13,2.05l-131.02 79.01c-38.31,26.37 -79.18,53.34 -111.69,85.97 -2.57,2.58 -10.35,9.74 -13.08,11.63 -67.19,46.76 -101.75,90.32 -163.23,151.8l-92.87 104.8c-1.23,1.3 -4.8,5.01 -5.92,6.44l-38.29 60.54c-18.39,28.63 -23.96,22.86 -40.88,57.95l-37.06 61.77c-2.33,4.79 -5.58,11.61 -8.53,16.18l-36.89 61.94c-0.63,1.27 -1.43,2.86 -2.06,4.12l-14.42 28.83c-2.42,4.86 -5.79,11.62 -8.24,16.46l-105.44 289.9c-2.57,11.55 -1.26,14.38 -4.56,26.32l-22.39 113.51c-3.96,29.33 -5.59,21.24 -14.77,47l-6.85 17.86c-11.03,41.38 -2.46,467.12 -2.47,559.65 0,28.68 -5.28,62.1 2.59,90.07 0.43,1.53 1.21,3 1.7,4.47l15.91 70.57c0.48,1.53 1.14,3.05 1.57,4.61l83.13 262.79c0.56,1.36 1.33,2.92 1.93,4.25l8.43 16.27c9.3,18.15 -5.08,-10.07 4.16,8.2 0.64,1.26 1.43,2.85 2.06,4.11l30.89 61.77c0.01,0.02 4.11,8.21 4.12,8.24l49.08 86.82c4.94,7.64 2.43,5.01 6.63,11.89 0.71,1.15 1.56,2.77 2.29,3.9l13.32 17.56c0.75,1.08 1.74,2.6 2.45,3.72l41.53 57.3c16.58,29.07 40.15,45.46 49.42,61.77 8.53,15 0.28,4.9 12.17,18.73 6.41,7.46 4.88,4.88 12.44,12.26l131.7 121.56c6.89,4.33 12.08,9.18 16.88,14l40.81 33.32c1.16,0.7 2.78,1.55 3.91,2.27 1.12,0.71 2.64,1.71 3.73,2.45l136.64 85.74c1.26,0.63 2.85,1.43 4.11,2.06l99.01 49.24c9.42,3.51 5.54,1.65 14.24,4.29l14.23 4.31c1.41,0.53 3.03,1.2 4.39,1.78l86.29 37.25c1.37,0.58 2.99,1.25 4.4,1.78 1.43,0.56 3.08,1.1 4.56,1.62l206.69 52.75c35.65,5.09 5.91,1.61 23.47,7.42 19.59,6.47 28.48,4.36 51.54,4.05 5.82,-0.08 18.86,-0.24 24.18,0.53 35.76,5.15 33.3,12.38 74.65,11.82l47.31 8.29c24.61,8.3 265.4,14.96 321.21,-3.76 20.33,-6.82 36.95,-2.53 57.64,-4.12 51.59,-3.97 -0.67,-6.27 43.49,-12.11 42.42,-5.61 67.22,-6.06 113.78,-22.11 7.71,-2.66 17.45,-5.74 23.18,-7.71 1.89,-0.65 7.04,-2.78 8.99,-3.37l149.41 -42.07c1.85,-0.36 3.47,-0.51 5.27,-0.91 1.73,-0.38 3.31,-0.76 4.98,-1.2 1.61,-0.42 3.16,-1 4.71,-1.47l8.99 -3.36c1.47,-0.51 3.03,-1.18 4.5,-1.68l18.77 -5.94c1.49,-0.49 3.09,-1.1 4.57,-1.6l100.54 -47.72c31.58,-23.7 -27.97,17.56 7.12,-5.23l20.41 -10.47c1.29,-0.63 2.94,-1.32 4.23,-1.95l16.18 -8.53c6.39,-4.13 2.64,-2.12 10.5,-8.03l163.92 -114.05c33.96,-31.71 63.56,-71.86 98.6,-99.07l27.29 -15.95c29.09,-20.2 55.99,-68.26 99.42,-110.6l121.5 -175c0.95,-1.59 3.38,-6.44 4.24,-8.12 0.65,-1.26 1.36,-2.91 1.99,-4.18l55.49 -136.95c2.58,-11.09 2.93,-7.51 0.24,-19.11l-12.39 -25.52c-8.93,-14.22 -16.99,-16.37 -22.92,-32.73z"/>
   <path class="fil0" d="M8666.29 3964.83l111.19 0c7.24,20.02 -5.49,3.61 12.65,18.23l7.73 4.63c21.47,12.75 35.69,20.29 51.67,47.17l22.49 33.09c0.73,1.13 1.66,2.67 2.35,3.84l4.24 8.11c0.66,1.25 1.36,2.91 2,4.17l10.48 20.41c0.63,1.24 1.56,2.74 2.17,4.01 0.61,1.29 1.5,2.79 2.06,4.12 13.65,32.47 -2.8,33.06 11.88,74.59 1.9,5.35 0.96,-4.94 4.95,13.59l2.45 318.75c6.95,32.24 11.87,-1.57 11.19,75.29l-0.06 358.34 -494.17 0c0,-50.88 -9.25,-524.98 6.18,-568.3 10.88,-30.54 -0.51,-51.74 26.42,-140.35l33.24 -102.66c42.07,-82.14 16.05,-40.64 100.84,-127.72 5.82,-5.97 11.74,-12.87 19.02,-18.04l36.74 -18.86c13.03,-9.09 5.55,4.28 12.29,-12.41zm1371.32 1964.32l-28.59 -14.89c-15.71,-8.15 3.14,-9.41 -27.01,-9.48 -21.63,-0.05 -32.07,6.48 -46.31,21.29l-30.98 43.15c-16.49,17.22 -21.19,39.13 -34.53,58.12 -0.27,0.37 -5.78,6.76 -8.31,10.22l-58.95 89.31c-13.2,22.61 -34.84,36.19 -47.36,57.64 -23.79,40.75 -140.76,153.21 -168.7,177.23l-220.27 138c-1.27,0.62 -2.81,1.47 -4.11,2.06 -1.31,0.61 -2.89,1.38 -4.24,1.94l-46.28 15.49c-7.06,2.35 -11.81,3.49 -18.87,5.84l-18.19 6.52c-1.51,0.51 -3.15,1.02 -4.66,1.52 -26.47,8.76 -11.39,9.52 -42.23,13.36 -23.46,2.92 -27.76,-2.95 -50.9,4.7 -37.39,12.36 -119.18,12.17 -156.91,0.04l-164.36 -45.66c-1.44,-0.52 -3.06,-1.15 -4.46,-1.72 -1.37,-0.55 -2.98,-1.26 -4.31,-1.86 -1.32,-0.59 -2.91,-1.36 -4.19,-1.99l-69.74 -41.45c-1.18,-0.68 -2.77,-1.54 -3.91,-2.27l-61.59 -49.59c-28.52,-17.89 -56.76,-64.88 -63,-72.9 -10.58,-13.59 -3.88,-4.49 -15.42,-15.46 -7.63,-7.25 -6.14,-4.77 -12.54,-12.17l-39.06 -59.78c-0.71,-1.15 -1.55,-2.77 -2.28,-3.9l-18.3 -24.93c-0.95,-1.59 -3.38,-6.44 -4.24,-8.12l-116.79 -297.07c-4.4,-14.48 -2.17,-10.71 -5.2,-25.69l-26.56 -171.11c-22.01,-78.19 -9.75,-158.6 -9.76,-249.67 -0.01,-137.16 4.29,-69.73 12.06,-123.84 1.03,-7.23 0.45,-22.85 0.23,-30.65 -0.1,-3.87 -0.51,-28.89 -0.09,-30.97 3.77,-18.8 -3.65,-11.86 12.51,-18.39 6.7,-16.61 -3.68,-5.95 13.34,-11.36 21.69,-6.88 50.82,-1.02 73.13,-1 173.72,0.18 1391.86,7.21 1431.88,-1.21 26.02,-5.48 8.75,-10.48 38.28,-11.14l16.87 -69.6c9.08,-28.41 3.9,-55.07 8.14,-84.53 6.21,-43.17 3.29,2.53 10.82,-32.41 9.23,-42.77 2.45,-104.81 -8.53,-143.43 -2.98,-10.5 -2.56,-10.09 -3.04,-21.68l-5.7 -80.77c-2.33,-6.72 -1.7,7.86 -5.56,-19.16l-56.14 -240.35c-0.58,-1.33 -1.36,-2.91 -1.97,-4.21l-26.07 -66.58c-0.5,-1.53 -1,-3.16 -1.49,-4.69l-7.54 -23.35c-0.57,-1.34 -1.35,-2.91 -1.96,-4.22l-84.52 -181.09c-0.62,-1.29 -1.35,-2.92 -1.98,-4.2l-113.27 -177.05c-0.71,-1.17 -1.47,-2.84 -2.16,-4.02l-126.71 -145.09c-16.52,-16.52 -26.65,-26.77 -43.18,-43.29 -9.08,-9.09 -14.07,-13.98 -21.65,-21.6 -23.35,-23.49 -52.33,-38.81 -74.12,-61.77l-368.74 -143.96c-16.94,-5.58 -44.04,-1.93 -63.34,-4.61 -45.28,-6.27 7.49,-5.13 -37.68,-11.74 -24.35,-3.56 -61.53,2.98 -85.89,-0.58 -36.1,-5.29 -21.75,-12.64 -80.54,-12.12 -35.67,0.31 -95.57,-3.77 -123.6,6.23l-86.71 5.95c-24.02,2.07 -26.67,9.01 -73.9,12.58 -19.17,1.44 -6.66,-0.16 -20.41,4.29 -17.17,5.58 11.52,0.66 -18.1,6.61l-97.61 19.76c-1.48,0.49 -3,1.21 -4.47,1.71l-23.27 7.61c-1.49,0.5 -3.08,1.1 -4.57,1.61l-27.82 9.24c-1.52,0.49 -3.15,1 -4.67,1.51 -1.5,0.49 -3.08,1.1 -4.57,1.6l-23.15 7.73c-1.58,0.5 -3.28,0.85 -4.84,1.35 -1.54,0.49 -3.23,0.91 -4.74,1.44 -1.47,0.51 -3.12,1.05 -4.56,1.61 -1.41,0.54 -3.03,1.2 -4.39,1.79l-391.17 214.19 -143.26 122.35c-25.56,25.18 -14.34,27.24 -39.69,52.96l-286.29 436.44c-0.54,1.45 -1.09,3.1 -1.59,4.59l-44.3 110.12c-1.76,5.23 -1.52,3.85 -3.29,9.07 -2.05,6.01 -3.39,10.91 -5.94,18.77l-24.93 86.26c-0.38,1.73 -0.76,3.31 -1.19,4.98l-63.24 288.85c-10.12,30.16 -3.08,72.95 -8.36,109.02 -6.31,43.15 -3.3,-2.55 -10.83,32.4 -9.87,45.76 -0.81,128.51 -1.35,178.04l8.18 59.76c10.51,31.21 0.16,90.29 10.48,119.24l15.58 95.61c0.45,1.63 0.86,3.23 1.26,4.91 1.75,7.41 1.09,9.51 2.43,16.11l31.63 135.15c0.5,1.47 1.17,3.04 1.67,4.5l9.43 27.64c0.49,1.49 1.19,3.01 1.65,4.53 0.47,1.56 1.04,3.1 1.46,4.71l4.29 26.6c0.39,1.74 0.67,3.38 1.13,5.04 0.44,1.6 0.96,3.2 1.47,4.71l3.82 8.54c0.6,1.27 1.55,2.75 2.18,3.99 0.63,1.24 1.61,2.71 2.24,3.93 0.65,1.23 1.6,2.72 2.23,3.96 15.33,30.23 19.33,64.57 34.72,95l240.82 407.77 58.96 58.41c30.71,30.69 90.6,102.27 128.72,124.55l407.45 228.79c1.3,0.61 2.87,1.39 4.21,1.96 1.37,0.58 2.98,1.24 4.39,1.79 1.44,0.55 3.09,1.09 4.57,1.61l37.2 12.21c10.84,2.83 11.18,1.63 21.16,3.55l23.95 6.94c1.47,0.51 3.03,1.17 4.5,1.68l83.05 15.78c43.94,5.81 -3.01,3.45 32.59,10.65 14.18,2.87 27.7,-0.13 41.53,1.7 45.49,6.02 -7.45,5.03 37.77,11.65l358.43 0.74c35.48,-1.52 37.74,-13 73.68,-12.8l96.14 -15.04c1.59,-0.41 3.05,-1.14 4.58,-1.61 1.49,-0.46 2.92,-1.3 4.39,-1.79l58.41 -15.7c11.06,-2.99 10.83,-1.65 21.07,-3.64 1.85,-0.36 3.48,-0.51 5.27,-0.91 1.73,-0.38 3.32,-0.76 4.98,-1.2l115.9 -38.53c1.83,-0.7 6.87,-2.94 8.6,-3.75l24.71 -12.36c1.44,-0.55 3.08,-1.09 4.57,-1.59 1.53,-0.52 3.21,-0.93 4.77,-1.42l27.94 -9.12c1.31,-0.6 2.91,-1.36 4.18,-2l138.9 -83.48c0.37,-0.26 6.76,-5.77 10.22,-8.3l216.09 -166.89c10.3,-10.46 14.06,-14.51 24.55,-24.88l186.65 -233.39c2.2,-3.41 6.13,-7.8 10.72,-13.99 6.36,-8.56 2.39,-2.17 7.57,-10.96l49.33 -86.56c4.12,-8.41 -0.06,0.12 4.1,-8.26l4.11 -8.24c0.63,-1.26 1.43,-2.86 2.06,-4.11l33.19 -65.65c0.59,-1.33 1.37,-2.89 1.93,-4.25 0.58,-1.38 1.24,-2.99 1.77,-4.41l5.59 -19.12c0.49,-1.55 0.89,-3.24 1.41,-4.76 0.51,-1.49 1.05,-3.14 1.6,-4.58 14.3,-37.59 20.4,-27.39 20.4,-103.14z"/>
   <path class="fil0" d="M13187.94 2815.89l0 37.06c28.89,10.45 40.75,24.84 73.66,25.18 27.87,0.28 78.78,-5.02 103.25,1.76l82.12 41.42c4.27,3.13 9.18,8.53 12.64,12.06 1.33,1.35 11.81,11.74 12.54,12.17 1.17,0.7 2.73,1.59 4.01,2.17l59.38 76.51c0.49,1.55 0.96,3.19 1.45,4.72l19.01 67.48c10.5,38.23 2.57,2754.47 2.57,2950.1 0,137.82 23.26,469.14 -20.18,566.65l-6.26 12.27c-0.68,1.17 -1.57,2.75 -2.29,3.89l-28.92 26.66c-32.23,18.81 -50.39,31.64 -86.07,43.66l-92.24 31.3c-11.19,2.12 -18.78,0.7 -29.75,1.13 -7.78,0.31 -9.32,-0.17 -17.17,1.37 -43.16,8.47 35.24,-11.08 -13.77,4.75l-25.02 5.87c-28.25,5.95 -15.04,-10.01 -24.25,12.81l-12.35 49.42c13.27,4.8 6.15,-0.13 15.35,9.35 9.08,9.37 4.54,2.07 9.35,15.36l1779.01 0c6.6,-16.36 -12.7,-11.52 24.71,-12.36 0.83,-37.41 -4,-18.1 12.35,-24.7l0 -24.72c-14.86,-5.38 -26.08,-20.92 -44.72,-29.4 -27.8,-12.64 -28.6,-1.04 -95.29,-34.42 -1.26,-0.64 -2.86,-1.43 -4.12,-2.06l-75.17 -48.37c-29.6,-30.34 -56.36,-53.29 -75.16,-91.63 -2.62,-5.33 -4.19,-8.43 -6.17,-12.36l-12.58 -24.48c-5.07,-11.08 -0.78,-0.19 -5.32,-13.22l-29.07 -125.35c-7.63,-32.31 -10.93,-42.82 -10.69,-81.96 6.76,-1134.46 0.02,-2269.13 0.02,-3403.62 0,-65.04 6.97,-470.65 -0.17,-524.88l-24.53 -55.77c-14.84,0 -41.92,-1.58 -55.33,0.27 -34.59,4.8 -5.2,0.73 -23.56,7.34l-46.07 15.69c-0.06,0.03 -9.46,2.8 -9.53,2.82l-129.48 43.49c-6.91,2.35 -14.97,4.61 -23.44,7.44l-161.88 54.32c-6.9,2.37 -14.96,4.63 -23.44,7.45l-46.15 15.62c-1.47,0.5 -3.05,1.14 -4.53,1.65 -1.48,0.5 -3.08,1.11 -4.56,1.61l-27.74 9.32c-1.49,0.49 -3.01,1.19 -4.53,1.65 -1.56,0.47 -3.1,1.05 -4.71,1.47l-106.48 35.6c-1.56,0.46 -3.1,1.05 -4.7,1.47l-31.42 5.64c-1.61,0.42 -3.15,1 -4.71,1.47l-70.36 28.47c-1.44,0.56 -3.09,1.1 -4.56,1.62l-27.97 9.09c-1.49,0.5 -3.01,1.19 -4.53,1.65l-90.54 26.83c-1.24,0.62 -2.73,1.58 -3.95,2.22l-7.93 4.43c-1.72,0.82 -6.65,3.17 -8.54,3.81l-77.89 20.95c-1.47,0.51 -3.06,1.14 -4.53,1.65 -1.47,0.51 -3.05,1.15 -4.52,1.65l-102.13 33.76c-1.9,0.65 -7.17,2.66 -9.06,3.3l-300.8 100.71c-30.93,14.83 -19.36,31.14 -40.59,39.72z"/>
  </g>
 </g>
</svg>
